<?xml version="1.0" standalone="no"?>
<!DOCTYPE svg PUBLIC "-//W3C//DTD SVG 20010904//EN"
 "http://www.w3.org/TR/2001/REC-SVG-20010904/DTD/svg10.dtd">
<svg version="1.0" xmlns="http://www.w3.org/2000/svg"
 width="845.000000pt" height="845.000000pt" viewBox="0 0 845.000000 845.000000"
 preserveAspectRatio="xMidYMid meet">
<metadata>
Created by potrace 1.11, written by Peter Selinger 2001-2013
</metadata>
<g transform="translate(0.000000,845.000000) scale(0.100000,-0.100000)"
fill="#000000" stroke="none">
<path d="M4055 6908 c-72 -28 -111 -89 -144 -221 -12 -47 -28 -99 -36 -114 -8
-15 -17 -57 -21 -93 -4 -41 -15 -77 -30 -100 -12 -19 -26 -57 -30 -85 -3 -27
-17 -84 -30 -125 -13 -41 -26 -93 -28 -116 -3 -23 -14 -61 -24 -85 -11 -25
-22 -65 -25 -89 -15 -118 -21 -145 -29 -151 -4 -3 -13 -32 -19 -65 -6 -32 -18
-71 -25 -86 -8 -14 -14 -31 -14 -37 0 -6 -8 -19 -19 -30 -18 -18 -19 -18 -47
0 -16 10 -38 32 -49 48 -21 33 -223 151 -290 170 -205 59 -228 62 -415 56
-184 -5 -270 -13 -285 -25 -5 -4 -41 -18 -80 -29 -38 -12 -87 -33 -107 -46
-21 -14 -42 -25 -47 -25 -6 0 -25 -13 -43 -28 -18 -15 -45 -36 -60 -45 -16
-10 -28 -23 -28 -30 0 -6 -19 -23 -41 -37 -23 -14 -42 -35 -46 -50 -3 -14 -15
-36 -27 -50 -36 -41 -76 -105 -76 -121 0 -7 -16 -32 -35 -53 -31 -35 -34 -45
-32 -89 2 -40 6 -51 20 -53 39 -5 32 -34 -9 -34 -14 0 -24 -6 -24 -15 0 -8
-11 -17 -24 -21 -32 -8 -53 -32 -60 -69 -25 -142 -23 -137 -55 -130 -19 4 -32
1 -41 -10 -7 -8 -21 -15 -31 -15 -10 0 -30 -12 -43 -27 -46 -49 -51 -27 -53
215 -1 119 3 236 8 259 11 53 38 86 132 169 20 17 48 53 63 80 14 27 37 63 50
80 33 44 61 149 45 168 -35 42 -194 -87 -226 -183 -9 -27 -25 -57 -37 -67 -11
-11 -24 -28 -29 -39 -5 -12 -7 7 -3 50 11 153 2 260 -30 330 -35 77 -39 84
-54 90 -18 7 -20 6 -26 -25 -3 -14 -8 -36 -11 -50 -3 -14 -5 -68 -4 -120 0
-52 1 -105 0 -117 0 -11 9 -47 20 -80 11 -32 23 -69 26 -83 3 -14 21 -42 39
-63 38 -42 41 -55 17 -72 -19 -14 -26 -45 -12 -61 6 -7 4 -16 -6 -24 -10 -8
-15 -29 -15 -59 1 -25 -1 -73 -4 -106 -3 -33 -5 -68 -5 -77 -1 -16 -3 -16 -21
2 -23 23 -60 27 -60 7 0 -7 9 -23 21 -35 20 -23 23 -54 4 -52 -28 3 -235 113
-235 125 0 17 -23 24 -75 24 -22 -1 -60 8 -85 20 -25 11 -57 18 -73 17 -16 -2
-27 2 -27 9 0 6 -9 20 -20 30 -12 11 -28 34 -36 52 -10 20 -32 40 -57 53 -23
12 -57 31 -75 42 -31 19 -57 27 -102 30 -8 1 -21 7 -28 15 -7 7 -33 13 -57 13
l-43 0 8 -34 c7 -33 93 -126 116 -126 6 0 18 -9 25 -20 22 -33 185 -100 250
-104 70 -4 78 -9 71 -41 -4 -23 -9 -25 -58 -25 -79 0 -192 -62 -279 -154 -43
-45 -58 -70 -74 -123 -11 -37 -19 -68 -18 -69 6 -6 127 29 127 37 0 4 21 17
47 29 55 24 229 194 244 239 10 29 69 58 91 45 6 -4 30 -6 54 -6 23 1 46 -2
49 -8 3 -5 32 -17 63 -26 54 -16 202 -108 229 -143 7 -9 17 -29 22 -46 7 -24
5 -33 -10 -47 -26 -22 -24 -40 9 -71 l28 -27 2 -410 c1 -232 5 -418 11 -427 7
-14 13 -8 34 33 20 41 25 69 30 169 4 66 9 131 12 145 6 28 9 389 3 405 -5 16
15 14 54 -6 21 -11 43 -18 50 -17 10 2 14 -75 15 -377 2 -303 6 -394 19 -451
8 -40 17 -109 18 -155 2 -46 8 -96 14 -111 6 -15 14 -50 17 -76 3 -27 8 -59
10 -73 3 -13 7 -37 9 -54 8 -58 17 -100 33 -160 8 -33 16 -64 17 -70 20 -90
103 -286 158 -374 15 -24 25 -48 22 -53 -3 -4 2 -11 10 -14 9 -3 16 -14 16
-25 0 -10 9 -24 19 -31 10 -7 32 -34 47 -60 70 -113 131 -197 154 -211 23 -14
120 -108 210 -202 19 -21 48 -44 63 -52 35 -17 115 -75 142 -101 18 -17 82
-50 110 -56 34 -7 61 -21 74 -37 10 -12 39 -23 81 -29 83 -13 89 -15 123 -29
16 -6 32 -9 36 -6 5 2 47 -11 94 -31 48 -19 109 -40 137 -47 27 -6 50 -15 50
-18 0 -4 48 -10 108 -13 59 -4 148 -9 197 -12 172 -12 382 -6 427 11 7 3 69 7
138 9 69 3 139 7 155 11 17 3 93 20 170 36 77 17 154 32 170 35 33 6 67 32 60
45 -3 4 5 11 17 15 13 4 48 26 79 50 30 23 85 59 121 79 37 20 68 42 71 49 3
7 25 22 49 34 23 11 70 45 103 76 101 93 116 106 124 106 15 0 248 236 264
267 11 21 27 34 47 38 28 6 80 59 80 81 0 18 61 93 80 99 12 4 20 15 20 28 0
13 13 39 30 59 16 20 34 48 40 63 5 14 13 24 17 22 14 -8 75 27 94 53 19 26
33 109 23 135 -8 19 -40 19 -94 0 -23 -8 -62 -15 -86 -15 -29 0 -50 -6 -62
-18 -15 -15 -39 -17 -204 -17 -102 0 -189 3 -193 7 -4 3 17 30 47 60 29 29 53
55 54 58 4 26 28 63 53 81 17 13 31 26 31 31 0 11 59 95 121 171 28 34 61 82
74 107 13 25 41 64 63 87 22 22 48 57 58 76 46 85 113 224 119 247 4 14 15 39
25 55 12 20 17 44 14 75 -5 64 -21 88 -66 100 l-38 11 36 72 c20 40 47 82 60
94 13 12 24 29 24 37 0 8 11 36 25 62 30 56 32 98 6 140 -27 45 -75 59 -146
44 -60 -12 -80 -7 -70 19 4 9 8 24 10 34 2 10 26 46 52 80 49 63 92 143 99
185 6 28 -37 107 -75 139 -20 17 -39 22 -79 23 -29 0 -62 -4 -72 -10 -28 -15
-35 18 -11 50 81 104 114 162 118 207 4 38 1 53 -16 71 -11 13 -21 28 -23 33
-2 5 -22 16 -45 24 -36 13 -47 13 -82 0 -22 -8 -43 -10 -46 -5 -7 11 5 42 22
55 7 6 14 20 16 32 2 13 15 36 30 51 15 15 27 32 27 38 0 5 10 27 21 49 26 48
35 135 19 175 -6 15 -24 33 -38 39 -25 11 -104 7 -124 -5 -28 -17 -11 38 42
141 33 65 58 120 56 123 -3 2 0 16 6 31 24 62 21 80 -20 121 l-39 39 -79 -1
c-98 -2 -109 3 -89 42 8 16 15 35 15 42 0 8 20 35 45 61 29 31 46 60 51 85 3
20 15 51 25 68 24 39 24 86 2 141 -21 51 -56 66 -149 67 -97 0 -137 -22 -264
-145 -38 -37 -86 -80 -107 -95 -43 -33 -73 -63 -73 -76 0 -4 -6 -8 -14 -8 -7
0 -21 -12 -31 -26 -9 -15 -33 -40 -53 -58 -20 -17 -43 -40 -51 -50 -9 -10 -24
-26 -33 -35 -10 -8 -18 -23 -18 -33 0 -10 -6 -18 -14 -18 -12 0 -28 -24 -27
-40 0 -3 -16 -21 -35 -41 -24 -25 -42 -35 -55 -32 -14 4 -16 9 -9 23 15 28 12
74 -11 170 -12 52 -26 91 -35 94 -8 3 -14 12 -14 19 0 15 -36 34 -57 31 -7 -1
-18 -2 -24 -3 -6 0 -35 -27 -64 -58 -30 -32 -56 -56 -58 -53 -3 3 -8 20 -10
39 -3 19 -11 37 -18 41 -6 5 -14 27 -16 51 -6 56 -29 99 -53 99 -10 0 -21 4
-25 9 -3 6 -13 9 -23 9 -9 0 -24 2 -33 6 -18 8 -49 -17 -49 -40 0 -8 -6 -14
-14 -14 -22 0 -48 -31 -43 -50 6 -23 -18 -56 -29 -39 -11 19 -14 118 -3 124
14 9 11 48 -6 72 -12 17 -13 31 -7 61 7 28 5 50 -5 78 -8 22 -17 47 -20 57 -3
9 -13 17 -22 17 -9 0 -25 6 -36 13 -36 24 -49 25 -100 5z"/>
<path d="M1172 6132 c-37 -18 -49 -49 -36 -94 11 -37 58 -67 94 -61 31 5 31 6
47 51 19 54 16 67 -18 96 -35 30 -42 31 -87 8z"/>
<path d="M1699 5894 c-13 -7 -36 -15 -51 -19 -32 -6 -34 -15 -12 -61 19 -39
64 -57 101 -40 23 11 40 36 24 36 -5 0 -5 17 0 37 12 54 -14 74 -62 47z"/>
<path d="M1112 5744 c-1 -133 14 -234 46 -308 46 -102 33 -124 -34 -58 -59 58
-102 86 -181 116 -73 29 -136 31 -146 3 -9 -28 54 -103 108 -127 101 -44 175
-63 206 -52 28 11 89 -6 90 -25 1 -7 2 -16 3 -20 2 -12 85 -133 123 -179 19
-23 42 -44 52 -47 17 -4 17 -1 8 30 -6 20 -17 37 -24 40 -7 3 -13 9 -13 14 0
5 -18 27 -40 49 -52 52 -72 120 -70 242 1 51 2 122 2 156 1 69 -37 211 -59
225 -7 4 -13 19 -13 31 0 23 -17 36 -44 36 -9 0 -13 -34 -14 -126z"/>
<path d="M518 5566 c-15 -13 -28 -30 -29 -37 -5 -25 21 -59 58 -74 33 -14 38
-14 68 5 27 16 31 24 27 50 -5 33 -53 80 -80 80 -9 0 -29 -11 -44 -24z"/>
<path d="M7105 5230 c-10 -34 -29 -75 -42 -93 -24 -32 -73 -130 -73 -146 0 -5
-16 -33 -35 -61 -29 -43 -47 -89 -52 -130 -6 -42 -40 -122 -63 -147 -17 -18
-30 -37 -30 -44 0 -20 -21 -80 -50 -144 -15 -33 -31 -76 -35 -95 -4 -19 -18
-48 -30 -65 -12 -16 -43 -84 -70 -150 -26 -66 -54 -130 -61 -142 -8 -12 -14
-28 -14 -36 0 -7 -9 -30 -20 -51 -10 -22 -17 -43 -14 -47 3 -5 2 -9 -3 -9 -18
0 -54 -69 -55 -106 -1 -22 -10 -52 -23 -69 -12 -16 -34 -63 -49 -102 -15 -40
-32 -75 -37 -79 -5 -3 -9 -20 -9 -37 0 -19 -15 -54 -35 -87 -19 -30 -35 -60
-35 -67 0 -6 -8 -16 -17 -22 -10 -5 -19 -19 -19 -30 -1 -12 -2 -26 -3 -31 0
-6 -12 -15 -25 -20 -16 -6 -27 -20 -31 -42 -4 -18 -19 -43 -32 -56 -28 -25
-26 -48 4 -45 11 1 44 15 74 30 41 22 58 38 74 71 11 23 27 42 35 42 8 0 26 9
40 20 14 11 28 20 32 20 18 0 100 65 108 84 5 11 32 41 61 66 68 58 80 70 104
101 12 15 34 33 51 42 28 14 57 43 175 169 25 26 57 51 72 57 15 6 39 28 54
50 16 22 53 56 82 76 30 19 101 81 158 135 56 55 107 100 112 100 5 0 29 19
53 43 25 23 68 61 96 85 29 24 52 50 52 58 0 7 8 14 18 14 9 0 28 10 42 23 14
12 52 42 85 66 92 68 166 149 211 230 11 18 24 43 31 54 16 29 0 56 -32 53
-14 -2 -30 3 -35 10 -6 7 -28 15 -48 19 -55 9 -80 33 -83 80 -3 53 -25 95 -48
95 -10 0 -35 -7 -54 -15 -50 -21 -84 -19 -99 5 -7 11 -23 20 -35 20 -13 0 -23
6 -24 13 0 6 -2 35 -3 64 -1 28 -4 54 -8 58 -7 7 -17 7 -130 0 l-87 -6 -34 34
c-25 27 -34 44 -36 78 -3 54 -15 69 -56 69 -30 0 -33 -3 -50 -60z"/>
<path d="M504 5055 c-4 -8 -14 -15 -24 -15 -28 0 -36 -53 -13 -84 22 -31 47
-36 109 -21 57 13 64 63 16 118 -19 21 -80 23 -88 2z"/>
<path d="M1051 4782 c-21 -39 9 -95 58 -112 53 -17 96 5 95 47 -1 41 -12 56
-38 49 -11 -3 -28 -1 -36 4 -8 5 -10 10 -5 10 6 0 3 5 -5 10 -24 16 -59 11
-69 -8z"/>
</g>
</svg>
